<svg xmlns="http://www.w3.org/2000/svg" viewBox="0 0 1200 384" width="1200" height="384" role="img" aria-label="A spending limit lets CHF 4,173 of risky spend through. Relay lets none through."><text x="40" y="52" font-family="Segoe UI, Helvetica, Arial, sans-serif" font-size="30" font-weight="600" fill="#0b0b0b" text-anchor="start">A spending limit lets CHF 4,173 of risky spend through. Relay lets none through.</text><text x="40" y="86" font-family="Segoe UI, Helvetica, Arial, sans-serif" font-size="18" font-weight="400" fill="#52514e" text-anchor="start">Risky spend stopped or put to the customer, of CHF 5,899 in total</text><text x="40" y="160" font-family="Segoe UI, Helvetica, Arial, sans-serif" font-size="22" font-weight="600" fill="#0b0b0b" text-anchor="start">No control</text><line x1="300" y1="122" x2="300" y2="182" stroke="#e4e3df" stroke-width="2"/><text x="314.0" y="160" font-family="Segoe UI, Helvetica, Arial, sans-serif" font-size="22" font-weight="600" fill="#0b0b0b" text-anchor="start">CHF 0</text><text x="40" y="238" font-family="Segoe UI, Helvetica, Arial, sans-serif" font-size="22" font-weight="600" fill="#0b0b0b" text-anchor="start">Plain spending limit</text><line x1="300" y1="200" x2="300" y2="260" stroke="#e4e3df" stroke-width="2"/><path d="M300,208 h171.54684639481428 a4,4 0 0 1 4,4 v36 a4,4 0 0 1 -4,4 h-171.54684639481428 z" fill="#eb6834"><title>Plain spending limit - CHF 1,726</title></path><text x="489.5468463948143" y="238" font-family="Segoe UI, Helvetica, Arial, sans-serif" font-size="22" font-weight="600" fill="#0b0b0b" text-anchor="start">CHF 1,726</text><text x="40" y="316" font-family="Segoe UI, Helvetica, Arial, sans-serif" font-size="22" font-weight="600" fill="#0b0b0b" text-anchor="start">Relay</text><line x1="300" y1="278" x2="300" y2="338" stroke="#e4e3df" stroke-width="2"/><path d="M300,286 h596.0 a4,4 0 0 1 4,4 v36 a4,4 0 0 1 -4,4 h-596.0 z" fill="#2a78d6"><title>Relay - CHF 5,899</title></path><text x="914.0" y="316" font-family="Segoe UI, Helvetica, Arial, sans-serif" font-size="22" font-weight="600" fill="#0b0b0b" text-anchor="start">CHF 5,899</text></svg>